<svg
        viewBox="0 0 24 24"
        height="20"
        width="20"
        xmlns="http://www.w3.org/2000/svg"
>
    <path
            d="M4 5a1 1 0 0 1 1-1h4a1 1 0 0 1 1 1v4a1 1 0 0 1-1 1H5a1 1 0 0 1-1-1zm0 10a1 1 0 0 1 1-1h4a1 1 0 0 1 1 1v4a1 1 0 0 1-1 1H5a1 1 0 0 1-1-1zm10 0a1 1 0 0 1 1-1h4a1 1 0 0 1 1 1v4a1 1 0 0 1-1 1h-4a1 1 0 0 1-1-1zm0-8h6m-3-3v6"
            stroke-width="2"
            stroke-linejoin="round"
            stroke-linecap="round"
            stroke="#fafafa"
            fill="none"
    ></path>
</svg>