<svg enable-background="new 0 0 520 520" viewBox="0 0 520 520" xmlns="http://www.w3.org/2000/svg"><g id="_x36_68_x2C__Shopping_x2C__Supermarket_x2C__Cart"><g><path d="m120 80 40 60h-40l-20-30h-45c-4.14 0-7.9-1.68-10.61-4.39s-4.39-6.47-4.39-10.61c0-8.28 6.71-15 15-15h25z" fill="#414a56" style="fill: rgb(214, 214, 214);"></path><g fill="#2d2c2e"><path d="m360 50c11.04 0 20 8.96 20 20 0 11.05-8.96 20-20 20-11.05 0-20-8.95-20-20 0-11.04 8.95-20 20-20z" fill="#2d2c2e" style="fill: rgb(191, 191, 191);"></path><path d="m70 280c11.04 0 20 8.96 20 20 0 11.05-8.96 20-20 20-11.05 0-20-8.95-20-20 0-11.04 8.95-20 20-20z" fill="#2d2c2e" style="fill: rgb(191, 191, 191);"></path><path d="m200 420c5.52 0 10 4.48 10 10s-4.48 10-10 10-10-4.48-10-10 4.48-10 10-10z" fill="#2d2c2e" style="fill: rgb(191, 191, 191);"></path><path d="m390 420c5.52 0 10 4.48 10 10s-4.48 10-10 10-10-4.48-10-10 4.48-10 10-10z" fill="#2d2c2e" style="fill: rgb(191, 191, 191);"></path></g><path d="m200 390c22.09 0 40 17.91 40 40s-17.91 40-40 40-40-17.91-40-40 17.91-40 40-40zm10 40c0-5.52-4.48-10-10-10s-10 4.48-10 10 4.48 10 10 10 10-4.48 10-10z" fill="#3c3b3d" style="fill: rgb(199, 199, 199);"></path><path d="m390 390c22.09 0 40 17.91 40 40s-17.91 40-40 40-40-17.91-40-40 17.91-40 40-40zm10 40c0-5.52-4.48-10-10-10s-10 4.48-10 10 4.48 10 10 10 10-4.48 10-10z" fill="#3c3b3d" style="fill: rgb(199, 199, 199);"></path><path d="m489.48 436.84c.35 1.05.52 2.12.52 3.17 0 4.181-2.65 8.08-6.84 9.48-1.05.35-2.11.51-3.16.51-4.19 0-8.09-2.65-9.49-6.84-.35-1.05-.51-2.11-.51-3.16 0-4.19 2.65-8.09 6.84-9.49 5.24-1.74 10.9 1.09 12.64 6.33z" fill="#000000" style="fill: rgb(255, 255, 255);"></path><path d="m449.48 96.84c.35 1.05.52 2.12.52 3.17 0 4.18-2.65 8.08-6.84 9.48-1.05.35-2.11.51-3.16.51-4.19 0-8.09-2.65-9.49-6.84-.35-1.05-.51-2.11-.51-3.16 0-4.19 2.65-8.09 6.84-9.49 5.24-1.74 10.9 1.09 12.64 6.33z" fill="#000000" style="fill: rgb(255, 255, 255);"></path><path d="m189.49 56.84c.35 1.05.51 2.11.51 3.16 0 4.19-2.65 8.09-6.84 9.49-1.05.35-2.11.51-3.16.51-4.19 0-8.09-2.65-9.49-6.84-.35-1.05-.52-2.11-.52-3.16 0-4.19 2.66-8.09 6.85-9.49 5.24-1.74 10.9 1.09 12.65 6.33z" fill="#000000" style="fill: rgb(255, 255, 255);"></path><path d="m109.49 416.84c.35 1.05.51 2.11.51 3.16 0 4.19-2.65 8.09-6.84 9.49-1.05.35-2.11.51-3.16.51-4.19 0-8.09-2.65-9.49-6.84-.35-1.05-.52-2.11-.52-3.16 0-4.19 2.66-8.09 6.85-9.49 5.24-1.74 10.9 1.09 12.65 6.33z" fill="#000000" style="fill: rgb(255, 255, 255);"></path><path d="m89.49 196.84c.35 1.05.51 2.11.51 3.16 0 4.19-2.65 8.09-6.84 9.49-1.05.35-2.11.51-3.16.51-4.19 0-8.09-2.65-9.49-6.84-.35-1.05-.52-2.11-.52-3.16 0-4.19 2.66-8.09 6.85-9.49 5.24-1.74 10.9 1.09 12.65 6.33z" fill="#000000" style="fill: rgb(255, 255, 255);"></path><path d="m450 340h-16.45c-5.522 0-10-4.478-10-10s4.478-10 10-10h16.45c5.522 0 10 4.478 10 10s-4.478 10-10 10z" fill="#000000" style="fill: rgb(255, 255, 255);"></path><path d="m480 400h-340c-22.056 0-40-17.944-40-40 0-10.681 4.162-20.725 11.719-28.281 7.558-7.557 17.601-11.719 28.281-11.719h3.22c5.523 0 10 4.478 10 10s-4.477 10-10 10h-3.22c-5.337 0-10.359 2.082-14.139 5.861-3.779 3.78-5.861 8.801-5.861 14.139 0 11.028 8.972 20 20 20h340c5.522 0 10 4.478 10 10s-4.478 10-10 10z" fill="#000000" style="fill: rgb(255, 255, 255);"></path><path d="m460.44 230h-330.66c-5.523 0-10-4.477-10-10s4.477-10 10-10h330.66c5.522 0 10 4.477 10 10s-4.477 10-10 10z" fill="#000000" style="fill: rgb(255, 255, 255);"></path><path d="m470.22 190h-345.33c-5.523 0-10-4.477-10-10s4.477-10 10-10h345.33c5.522 0 10 4.477 10 10s-4.478 10-10 10z" fill="#000000" style="fill: rgb(255, 255, 255);"></path><path d="m440.88 310h-301.32c-5.523 0-10-4.478-10-10s4.477-10 10-10h301.32c5.522 0 10 4.478 10 10s-4.478 10-10 10z" fill="#000000" style="fill: rgb(255, 255, 255);"></path><path d="m450.66 270h-315.99c-5.523 0-10-4.478-10-10 0-5.523 4.477-10 10-10h315.99c5.522 0 10 4.477 10 10 0 5.522-4.477 10-10 10z" fill="#000000" style="fill: rgb(255, 255, 255);"></path><path d="m200 340c-5.523 0-10-4.478-10-10v-190c0-5.523 4.477-10 10-10s10 4.477 10 10v190c0 5.522-4.477 10-10 10z" fill="#000000" style="fill: rgb(255, 255, 255);"></path><path d="m260 340c-5.523 0-10-4.478-10-10v-190c0-5.523 4.477-10 10-10 5.522 0 10 4.477 10 10v190c0 5.522-4.478 10-10 10z" fill="#000000" style="fill: rgb(255, 255, 255);"></path><path d="m320 340c-5.522 0-10-4.478-10-10v-190c0-5.523 4.478-10 10-10s10 4.477 10 10v190c0 5.522-4.478 10-10 10z" fill="#000000" style="fill: rgb(255, 255, 255);"></path><path d="m380 340c-5.522 0-10-4.478-10-10v-190c0-5.523 4.478-10 10-10s10 4.477 10 10v190c0 5.522-4.478 10-10 10z" fill="#000000" style="fill: rgb(255, 255, 255);"></path><path d="m160.009 150.001c-3.231 0-6.403-1.563-8.33-4.454l-37.031-55.547h-59.648c-2.757 0-5 2.243-5 5 0 1.808.916 2.993 1.461 3.539.546.545 1.731 1.461 3.539 1.461h45c3.344 0 6.466 1.671 8.32 4.453l20 30c3.064 4.595 1.822 10.804-2.773 13.867-4.594 3.063-10.804 1.822-13.867-2.773l-17.032-25.547h-39.648c-6.682 0-12.961-2.599-17.681-7.319s-7.319-10.999-7.319-17.681c0-13.785 11.215-25 25-25h65c3.344 0 6.466 1.671 8.32 4.453l40 60c3.064 4.595 1.822 10.804-2.773 13.867-1.705 1.137-3.632 1.681-5.538 1.681z" fill="#000000" style="fill: rgb(255, 255, 255);"></path><path d="m200 480c-27.57 0-50-22.43-50-50s22.43-50 50-50 50 22.43 50 50-22.43 50-50 50zm0-80c-16.542 0-30 13.458-30 30s13.458 30 30 30 30-13.458 30-30-13.458-30-30-30z" fill="#000000" style="fill: rgb(255, 255, 255);"></path><path d="m390 480c-27.57 0-50-22.43-50-50s22.43-50 50-50 50 22.43 50 50-22.43 50-50 50zm0-80c-16.542 0-30 13.458-30 30s13.458 30 30 30 30-13.458 30-30-13.458-30-30-30z" fill="#000000" style="fill: rgb(255, 255, 255);"></path><path d="m390 450c-11.028 0-20-8.972-20-20s8.972-20 20-20 20 8.972 20 20-8.972 20-20 20z" fill="#000000" style="fill: rgb(255, 255, 255);"></path><path d="m200 450c-11.028 0-20-8.972-20-20s8.972-20 20-20 20 8.972 20 20-8.972 20-20 20z" fill="#000000" style="fill: rgb(255, 255, 255);"></path><path d="m360 100c-16.542 0-30-13.458-30-30s13.458-30 30-30 30 13.458 30 30-13.458 30-30 30zm0-40c-5.514 0-10 4.486-10 10s4.486 10 10 10 10-4.486 10-10-4.486-10-10-10z" fill="#000000" style="fill: rgb(255, 255, 255);"></path><path d="m70 330c-16.542 0-30-13.458-30-30s13.458-30 30-30 30 13.458 30 30-13.458 30-30 30zm0-40c-5.514 0-10 4.486-10 10s4.486 10 10 10 10-4.486 10-10-4.486-10-10-10z" fill="#000000" style="fill: rgb(255, 255, 255);"></path><path d="m433.55 340h-290.33c-5.053 0-9.313-3.77-9.926-8.785l-23.221-190.001c-.347-2.842.541-5.697 2.438-7.841 1.899-2.145 4.625-3.373 7.489-3.373h360c3.07 0 5.971 1.411 7.866 3.826s2.577 5.567 1.848 8.549l-46.45 189.998c-1.094 4.478-5.106 7.627-9.714 7.627zm-281.479-20h273.628l41.562-170h-335.964z" fill="#000000" style="fill: rgb(255, 255, 255);"></path></g></g></svg>