<svg xmlns="http://www.w3.org/2000/svg" viewBox="0,0,256,256"><g fill="#ffffff" fill-rule="nonzero" stroke="none" stroke-width="1" stroke-linecap="butt" stroke-linejoin="miter" stroke-miterlimit="10" stroke-dasharray="" stroke-dashoffset="0" font-family="none" font-weight="none" font-size="none" text-anchor="none" style="mix-blend-mode: normal"><g transform="scale(2.56,2.56)"><path d="M49.06641,13.01172c-20.10794,0.099 -34.10355,17.37638 -35.13281,36.9375c-0.72952,13.86094 7.35474,25.67239 19.03906,32.06055c0.17429,0.21577 0.43036,0.34946 0.70703,0.36914c5.19212,2.70913 11.05235,4.36872 17.15234,4.67383c21.17559,1.05878 36.0475,-16.97672 37.0957,-36.89258c1.07944,-20.49457 -16.64586,-36.09062 -36.89648,-37.10351c-0.66113,-0.03306 -1.3162,-0.04812 -1.96484,-0.04492zM49.08203,17.01172c0.57744,-0.00256 1.16113,0.01157 1.75,0.04102c11.16598,0.5585 21.3534,5.93517 27.4043,14.13477l-2.0918,3.31445c-0.29502,0.46707 -0.15555,1.08486 0.31152,1.37988c0.46707,0.29502 1.08486,0.15555 1.37988,-0.31152l1.63477,-2.58984c0.98241,1.55082 1.81708,3.19206 2.49609,4.90625l-3.43555,2.19727c-0.30897,0.18872 -0.49182,0.52969 -0.47807,0.89147c0.01375,0.36179 0.22196,0.68789 0.54437,0.85261c0.32241,0.16472 0.70866,0.14233 1.00988,-0.05854l3.04883,-1.94922c0.31174,0.98963 0.56816,2.00278 0.77148,3.03516l-4.05664,1.29297c-0.34061,0.10843 -0.59749,0.39037 -0.67383,0.73958c-0.07634,0.34921 0.03946,0.71262 0.30376,0.95328c0.2643,0.24067 0.63693,0.32201 0.97749,0.21339l3.77539,-1.20313c0.12349,0.99837 0.1915,2.01431 0.20898,3.04492l-4.30859,0.07617c-0.55221,0.00981 -0.99193,0.46537 -0.98223,1.01757c0.00971,0.55221 0.46517,0.99202 1.01738,0.98243l4.24609,-0.07422c-0.00087,0.01705 -0.00105,0.03373 -0.00195,0.05078c-0.05321,1.01091 -0.15114,2.01468 -0.2793,3.00977l-4.35156,-0.61133c-0.06591,-0.00989 -0.13265,-0.01316 -0.19922,-0.00977c-0.51608,0.02718 -0.92645,0.44309 -0.94672,0.95949c-0.02027,0.5164 0.35624,0.96319 0.8686,1.03075l4.33008,0.60742c-0.22628,1.25594 -0.5171,2.49227 -0.85937,3.70703l-2.88867,-1.94531c-0.16569,-0.11552 -0.36247,-0.17817 -0.56445,-0.17969c-0.44419,-0.00381 -0.83767,0.28584 -0.96601,0.7111c-0.12835,0.42526 0.03919,0.88422 0.41133,1.12679l3.38477,2.2793c-1.47079,4.31798 -3.67102,8.28797 -6.49609,11.65039c-1.2859,-0.55802 -3.22325,-1.41566 -5.66992,-2.62305c-0.90385,-0.44603 -1.81786,-0.91195 -2.6875,-1.38086c-0.09301,-0.07853 -0.19957,-0.13943 -0.31445,-0.17969c-0.75292,-0.41191 -1.48687,-0.82681 -2.125,-1.22461c-0.41937,-0.26143 -0.79217,-0.52473 -1.13281,-0.7793c-0.13318,-0.25573 -0.37025,-0.44154 -0.65039,-0.50977c-0.48145,-0.40305 -0.79438,-0.72195 -0.85547,-0.8418c-1.31853,-2.58699 -1.58008,-5.30078 -1.58008,-5.30078c-0.00728,-0.08599 -0.02566,-0.17068 -0.05469,-0.25195c0.54241,-0.96216 0.92114,-1.85621 1.11328,-2.57617c0.50635,-1.89732 1.16389,-3.3939 1.54102,-4.30664c0.02016,0.01031 0.01263,0.01534 0.0332,0.02539c0.39408,0.19262 0.89467,0.35061 1.46875,0.31055c0.57408,-0.04006 1.18933,-0.30723 1.68945,-0.78906c0.59359,-0.57188 0.93203,-1.33072 1.26758,-2.24219c0.33555,-0.91147 0.61131,-1.96169 0.78906,-2.99805c0.17776,-1.03636 0.26251,-2.04967 0.17578,-2.93945c-0.04336,-0.44489 -0.1253,-0.8624 -0.3125,-1.26367c-0.1872,-0.40127 -0.52974,-0.82335 -1.04687,-1.00781c-0.73159,-0.26119 -1.41948,-0.28726 -2.01953,-0.17578c-0.02911,0.00541 -0.05529,0.01544 -0.08398,0.02148c0.39969,-2.78792 0.69165,-6.78965 -0.5625,-10.49609c-0.77712,-2.29664 -2.19026,-4.46743 -4.53711,-5.95898c-2.34685,-1.49155 -5.57024,-2.28231 -9.88672,-2.04492c-1.51776,0.08338 -2.87645,0.30229 -4.10937,0.61719c-0.14702,0.00229 -0.29174,0.03696 -0.42383,0.10156c-2.23619,0.62986 -4.0013,1.61835 -5.36328,2.84375c-2.17672,1.95845 -3.28667,4.47032 -3.79687,6.88281c-0.70825,3.34892 -0.30417,6.54546 0.00977,8.21094c-0.22666,-0.02781 -0.46093,-0.0451 -0.70703,-0.0332c-0.72331,0.03496 -1.60353,0.37756 -2.125,1.16797c-0.52147,0.7904 -0.68393,1.85421 -0.54687,3.28906c0.26454,2.76388 1.03081,4.69679 2.25195,5.78516c0.61057,0.54418 1.3967,0.86115 2.1875,0.77734c0.17011,-0.01803 0.31552,-0.11465 0.47656,-0.16602c0.21684,1.20868 0.47823,2.31579 0.56641,3.72852c0.047,0.75272 0.30926,1.67933 0.77344,2.78516c0.13141,0.31306 0.2856,0.63802 0.45117,0.96875c-0.03979,0.11483 -0.05833,0.23595 -0.05469,0.35742c0,0 0.11619,4.09354 -3.77344,5.94336c-3.68057,1.74995 -8.28897,4.23805 -10.11328,5.22852c-4.66856,-5.1839 -7.57698,-11.7295 -7.73437,-18.95703l3.67773,0.15625c0.36131,0.02233 0.70649,-0.15233 0.9025,-0.45668c0.19601,-0.30434 0.21226,-0.69085 0.04248,-1.01057c-0.16978,-0.31972 -0.49908,-0.52273 -0.86099,-0.5308l-3.74023,-0.16016c0.00196,-0.04057 -0.00018,-0.08048 0.00195,-0.12109c0.06238,-1.18546 0.17838,-2.3585 0.33984,-3.51758l3.13086,1.47852c0.32309,0.15294 0.70324,0.12186 0.9972,-0.08154c0.29396,-0.20339 0.45704,-0.54819 0.42781,-0.90445c-0.02924,-0.35626 -0.24635,-0.66986 -0.56954,-0.82261l-3.64453,-1.7207c2.93887,-15.30978 14.47219,-27.50907 30.47266,-27.58008zM51.49414,24.70898c3.249,0.00976 5.57668,0.70818 7.25586,1.77539c1.91906,1.21967 3.04783,2.94282 3.71484,4.91406c0.64009,1.89169 0.80973,3.99684 0.76953,5.95508l-2.125,0.26953c-0.54797,0.06957 -0.93579,0.57019 -0.86621,1.11816c0.06957,0.54797 0.57019,0.93579 1.11816,0.86621l1.75781,-0.22461c-0.11794,1.30645 -0.29635,2.47597 -0.45117,3.34766c-0.00395,0.02137 -0.00721,0.04287 -0.00977,0.06445c-0.14046,0.20768 -0.23633,0.38477 -0.23633,0.38477c-0.24378,0.49565 -0.0396,1.09509 0.45605,1.33887c0.49565,0.24378 1.09509,0.0396 1.33887,-0.45605c0,0 0.16725,-0.32741 0.51953,-0.59766c0.33652,-0.25816 0.73391,-0.44089 1.52734,-0.1875c0.04184,0.09464 0.1025,0.30473 0.13086,0.5957c0.0584,0.59912 -0.00096,1.48948 -0.1582,2.40625c-0.15724,0.91677 -0.40853,1.87084 -0.69336,2.64453c-0.28483,0.77369 -0.65993,1.38102 -0.77734,1.49414c-0.21088,0.20317 -0.32425,0.22606 -0.44336,0.23438c-0.11911,0.0083 -0.27651,-0.02791 -0.45117,-0.11328c-0.34933,-0.17075 -0.64453,-0.48438 -0.64453,-0.48437c-0.22559,-0.25892 -0.56825,-0.38399 -0.90759,-0.33126c-0.33934,0.05272 -0.62789,0.27587 -0.76429,0.59103c0,0 -1.35418,3.11836 -2.06641,5.78711c-0.26738,1.00189 -1.41513,3.28423 -3.16797,5.16602c-1.29497,1.39024 -2.89873,2.57256 -4.72852,3.12305l-0.05078,-1.97461c-0.01456,-0.55228 -0.47408,-0.9882 -1.02637,-0.97363c-0.55228,0.01456 -0.9882,0.47408 -0.97363,1.02637l0.05859,2.25c-0.0094,0.00024 -0.0179,0.00371 -0.02734,0.00391c-0.50776,0.01065 -0.96067,-0.09259 -1.42383,-0.17383l0.91602,-2.36328c0.12917,-0.33321 0.07074,-0.71002 -0.15328,-0.98846c-0.22402,-0.27844 -0.57958,-0.4162 -0.93272,-0.36137c-0.35314,0.05483 -0.65019,0.29391 -0.77923,0.62717l-0.96094,2.48242c-0.5143,-0.24809 -0.92426,-0.61156 -1.37109,-0.95508l1.9043,-2.10547c0.25107,-0.26303 0.33959,-0.6416 0.23119,-0.98868c-0.1084,-0.34708 -0.39665,-0.60798 -0.75278,-0.68137c-0.35614,-0.07339 -0.72404,0.0523 -0.96083,0.32826l-1.89648,2.0957c-0.18962,-0.21557 -0.45931,-0.35367 -0.63281,-0.58008c-0.12252,-0.15988 -0.16583,-0.3194 -0.2793,-0.48242l1.95117,-2.02734c0.25036,-0.257 0.34387,-0.62842 0.24504,-0.97334c-0.09883,-0.34491 -0.37484,-0.61046 -0.72332,-0.69587c-0.34847,-0.08542 -0.716,0.02238 -0.96313,0.28249l-1.55078,1.61328c-0.13188,-0.26659 -0.36151,-0.55582 -0.4668,-0.80664c-0.06948,-0.16553 -0.09882,-0.29407 -0.15625,-0.45117l1.9375,-1.32031c0.37489,-0.2474 0.53886,-0.71438 0.40092,-1.14185c-0.13793,-0.42746 -0.54393,-0.71053 -0.99272,-0.69214c-0.19147,0.00821 -0.37654,0.07126 -0.5332,0.18164l-1.31836,0.89844c-0.17451,-2.00804 -0.62223,-3.15598 -0.76758,-4.95703c-0.03282,-0.40919 -0.31237,-0.75677 -0.705,-0.87658c-0.39263,-0.11982 -0.81861,0.01247 -1.0743,0.33362c-0.28097,0.35361 -0.50306,0.44604 -0.66211,0.46289c-0.15904,0.01685 -0.34923,-0.02001 -0.64453,-0.2832c-0.59061,-0.52639 -1.35829,-2.02034 -1.59375,-4.48047c-0.11244,-1.17714 0.07744,-1.77201 0.22656,-1.99805c0.14912,-0.22603 0.25717,-0.2572 0.55273,-0.27148c0.59113,-0.02857 1.56445,0.42773 1.56445,0.42773c0.41982,0.24582 0.95562,0.15388 1.26948,-0.21783c0.31386,-0.37171 0.3147,-0.91534 0.00201,-1.28803c-0.005,-0.07348 -0.0181,-0.14619 -0.03906,-0.2168c0,0 -0.45179,-1.68867 -0.56055,-3.99609l5.4375,1.14063c0.54096,0.11326 1.07131,-0.23346 1.18457,-0.77441c0.11326,-0.54096 -0.23346,-1.07131 -0.77441,-1.18457l-5.82617,-1.2207c0.00847,-0.15348 0.01664,-0.30535 0.0293,-0.46094l3.06445,0.08984c0.35734,0.01058 0.69316,-0.17032 0.88093,-0.47453c0.18777,-0.30421 0.19894,-0.6855 0.0293,-1.00018c-0.16964,-0.31468 -0.4943,-0.51493 -0.85164,-0.52529l-2.84766,-0.08398c0.44959,-2.1086 1.38092,-4.17575 3.17188,-5.78711c0.96921,-0.87202 2.21205,-1.61782 3.79492,-2.16211l1.07422,3.60938c0.08994,0.35585 0.36758,0.63383 0.72331,0.72422c0.35573,0.09039 0.7324,-0.02134 0.9813,-0.29109c0.2489,-0.26975 0.33005,-0.65416 0.2114,-1.00149l-1.06055,-3.56641c0.38188,-0.07708 0.78607,-0.13938 1.20117,-0.19531l1.48242,4.98242c0.0925,0.35333 0.37025,0.62814 0.72455,0.71687c0.3543,0.08873 0.72878,-0.02274 0.97689,-0.29078c0.2481,-0.26803 0.33036,-0.65 0.21458,-0.9964l-1.36328,-4.58984c0.39467,-0.01725 0.78594,-0.03236 1.15625,-0.03125zM58.70117,61.55859c0.25789,1.12798 0.70246,2.61521 1.45703,4.0957c0.21137,0.41471 0.52698,0.77408 0.88477,1.11914l-1.76367,2.01758c-0.25212,0.26622 -0.33835,0.64905 -0.22471,0.99765c0.11364,0.3486 0.40892,0.60707 0.76949,0.67356c0.36057,0.06649 0.72862,-0.06966 0.95912,-0.3548l1.8418,-2.10547c0.13193,0.0863 0.2734,0.17572 0.41211,0.26367l-4.88281,6.12109c-0.22759,0.27902 -0.28761,0.65885 -0.15717,0.99445c0.13045,0.33561 0.43123,0.57518 0.78752,0.62726c0.35628,0.05208 0.71305,-0.09139 0.9341,-0.37562l5.05469,-6.33984c0.10122,0.05818 0.19985,0.11567 0.30273,0.17383l-1.44336,3.04492c-0.16195,0.32395 -0.1361,0.71015 0.06758,1.00964c0.20368,0.29948 0.55336,0.46544 0.91417,0.43386c0.3608,-0.03158 0.67634,-0.25576 0.82489,-0.58607l1.39258,-2.9375c0.51737,0.27093 1.03525,0.53961 1.55859,0.80078l-1.12695,2.60352c-0.14212,0.32798 -0.09844,0.70687 0.1146,0.99391c0.21303,0.28703 0.56304,0.43858 0.91812,0.39753c0.35509,-0.04105 0.66128,-0.26845 0.80321,-0.59651l1.08984,-2.52148c1.47021,0.70167 2.74261,1.28695 3.78125,1.74609c-5.73715,6.00199 -13.64171,9.66606 -22.93945,9.20117c-1.88599,-0.09433 -3.74097,-0.33762 -5.55664,-0.70312l0.81445,-1.68359c0.16116,-0.32047 0.13834,-0.70271 -0.0598,-1.00173c-0.19814,-0.29902 -0.54125,-0.46903 -0.89919,-0.44554c-0.36482,0.02376 -0.6876,0.24469 -0.8418,0.57617l-1.01367,2.0957c-0.40076,-0.1036 -0.79964,-0.21187 -1.19531,-0.32812l0.92188,-2.07227c0.14298,-0.30913 0.1188,-0.66978 -0.06416,-0.95706c-0.18296,-0.28728 -0.49955,-0.4617 -0.84014,-0.46286c-0.40087,-0.00117 -0.7637,0.23713 -0.92187,0.60547l-1.00977,2.26562c-0.60949,-0.21504 -1.21233,-0.44469 -1.80664,-0.68945l0.48438,-1.20312c0.13086,-0.31362 0.09351,-0.67222 -0.09916,-0.95215c-0.19267,-0.27992 -0.5143,-0.44286 -0.85397,-0.43262c-0.4018,0.0122 -0.75725,0.26378 -0.90234,0.63867l-0.45898,1.14063c-0.32778,-0.15602 -0.65058,-0.31932 -0.97266,-0.48437l0.35742,-0.92383c0.12743,-0.31598 0.08523,-0.6751 -0.11198,-0.95294c-0.19721,-0.27783 -0.5223,-0.43615 -0.86263,-0.42011c-0.40087,0.01905 -0.75153,0.27589 -0.89062,0.65234l-0.26172,0.67969c-2.53807,-1.48144 -4.86605,-3.24854 -6.91602,-5.25781c1.96849,-1.06442 5.35202,-2.86965 8.62695,-4.46875c0.0561,0.07824 0.12319,0.14797 0.19922,0.20703l3.58984,2.87891c0.27703,0.2377 0.66157,0.30558 1.00324,0.1771c0.34167,-0.12848 0.58621,-0.43291 0.63798,-0.79425c0.05178,-0.36134 -0.09743,-0.72219 -0.38927,-0.94145l-3.1543,-2.5293c0.59455,-0.38239 1.09496,-0.81256 1.52344,-1.26758l1.92383,2.32617c0.22779,0.27541 0.58522,0.40833 0.93761,0.34869c0.35239,-0.05964 0.64617,-0.30279 0.77065,-0.63781c0.12447,-0.33503 0.06072,-0.71101 -0.16724,-0.98627l-2.24219,-2.70898c0.40767,-0.73137 0.65506,-1.44133 0.83203,-2.08398c0.00402,0.00525 0.00769,0.01037 0.01172,0.01563c1.81321,2.3662 4.64516,4.52686 8.43945,4.44727c3.40612,-0.07159 6.18476,-1.96059 8.16992,-4.0918c0.32918,-0.35339 0.63019,-0.71213 0.91797,-1.07227zM54.6875,71.92188c-0.404,-0.021 -0.74758,0.29036 -0.76758,0.69336c-0.021,0.404 0.29036,0.74953 0.69336,0.76953c0.404,0.021 0.74953,-0.29131 0.76953,-0.69531c0.02,-0.403 -0.29131,-0.74658 -0.69531,-0.76758zM49.29492,72.77148c-0.404,-0.021 -0.74953,0.28936 -0.76953,0.69336c-0.021,0.404 0.29231,0.74758 0.69531,0.76758c0.404,0.021 0.74758,-0.28936 0.76758,-0.69336c0.02,-0.404 -0.29036,-0.74758 -0.69336,-0.76758zM53.71289,76.1875c-0.404,-0.021 -0.74953,0.29131 -0.76953,0.69531c-0.021,0.404 0.29131,0.74658 0.69531,0.76758c0.404,0.021 0.74758,-0.29131 0.76758,-0.69531c0.02,-0.404 -0.29036,-0.74758 -0.69336,-0.76758z"></path></g></g></svg>