<svg width="128" height="64" viewBox="0 0 128 64" fill="none" xmlns="http://www.w3.org/2000/svg">
    <path d="M43.3893 47.355C43.3698 47.1121 43.2515 46.8835 43.0562 46.7112L30.5404 35.6723C30.3451 35.5 30.086 35.3957 29.8105 35.3785L21.24 34.8426C20.1812 34.7764 19.5973 35.9051 20.3479 36.5671L42.0417 55.7011C42.7922 56.3631 44.0719 55.8481 43.9968 54.9142L43.3893 47.355Z" fill="#fafafa"/>
    <path d="M29.8015 28.6215C30.077 28.6043 30.3362 28.5 30.5315 28.3277L43.0473 17.2888C43.2426 17.1165 43.3608 16.8879 43.3803 16.645L43.9879 9.08581C44.0629 8.15194 42.7833 7.63693 42.0327 8.29894L20.3389 27.4329C19.5884 28.0949 20.1723 29.2236 21.2311 29.1574L29.8015 28.6215Z" fill="#fafafa"/>
    <rect x="52" y="20" width="24" height="24" rx="12" fill="#fafafa"/>
    <path d="M84.6107 47.355C84.6302 47.1121 84.7485 46.8835 84.9438 46.7112L97.4596 35.6723C97.6549 35.5 97.914 35.3957 98.1895 35.3785L106.76 34.8426C107.819 34.7764 108.403 35.9051 107.652 36.5671L85.9583 55.7011C85.2078 56.3631 83.9281 55.8481 84.0032 54.9142L84.6107 47.355Z" fill="#fafafa"/>
    <path d="M98.1985 28.6215C97.923 28.6043 97.6638 28.5 97.4685 28.3277L84.9527 17.2888C84.7574 17.1165 84.6392 16.8879 84.6197 16.645L84.0121 9.08581C83.9371 8.15194 85.2167 7.63693 85.9673 8.29894L107.661 27.4329C108.412 28.0949 107.828 29.2236 106.769 29.1574L98.1985 28.6215Z" fill="#fafafa"/>
</svg>
