<svg id="Layer_1" enable-background="new 0 0 24 24" viewBox="0 0 24 24" xmlns="http://www.w3.org/2000/svg"><g><path fill="#fafafa" d="m12 12.8c-3.2 0-5.8-2.6-5.8-5.8s2.6-5.7 5.8-5.7c1.3 0 2.5.4 3.5 1.2.3.3.4.7.1 1.1-.3.3-.7.4-1.1.1-.7-.7-1.6-.9-2.5-.9-2.3 0-4.2 1.9-4.2 4.2s1.9 4.3 4.3 4.3c2.3 0 4.3-1.9 4.3-4.3 0-.4.3-.8.8-.8s.8.3.8.8c-.2 3.2-2.8 5.8-6 5.8z"/></g><g><path fill="#fafafa" d="m20.6 22.8c-.4 0-.8-.3-.8-.8 0-3.4-3.5-6.3-7.8-6.3s-7.8 2.8-7.8 6.3c0 .4-.3.8-.8.8s-.7-.4-.7-.8c0-4.3 4.2-7.8 9.3-7.8 5.2 0 9.3 3.5 9.3 7.8 0 .4-.3.8-.7.8z"/></g></svg>