<svg width="31" height="31" viewBox="0 0 31 31" fill="none" xmlns="http://www.w3.org/2000/svg">
    <path d="M14.4262 0.652674C13.4278 0.757307 12.1347 1.03316 11.1268 1.35658C9.62445 1.85121 7.4375 2.94511 7.4375 3.21145C7.4375 3.29706 8.85426 7.7012 9.98577 11.1256L10.4327 12.4763L11.9065 11.4014C12.7147 10.8117 15.6909 8.65242 18.5149 6.59779C21.3389 4.54316 23.6399 2.84048 23.6399 2.80243C23.6114 2.65974 21.5861 1.72755 20.6163 1.40414C19.0854 0.890478 17.9729 0.700234 16.2804 0.652674C15.4722 0.633649 14.6354 0.633649 14.4262 0.652674Z" fill="white"/>
    <path d="M24.1118 4.71456C23.5413 5.14261 21.7727 6.43626 20.1943 7.57773C17.3608 9.63236 17.3322 9.6609 17.5414 9.8226C18.1975 10.3363 30.4064 19.1731 30.5015 19.2111C30.7677 19.3158 31.0625 16.8521 30.9864 15.1494C30.8153 11.6489 29.4841 8.3387 27.1925 5.7609C26.4984 4.9809 25.3574 3.91553 25.2338 3.93456C25.1957 3.93456 24.6918 4.28651 24.1118 4.71456Z" fill="white"/>
    <path d="M5.01996 5.11377C2.8235 7.33011 1.43526 10.003 0.807702 13.1991C0.550973 14.5308 0.589007 17.4225 0.88377 18.8113L1.11197 19.8577L6.04687 19.8862C9.97388 19.9052 10.9628 19.8862 10.9247 19.7911C10.9057 19.7245 10.706 19.1347 10.4968 18.4784C10.2877 17.822 9.25123 14.6355 8.19579 11.3918C7.14035 8.14816 6.1895 5.22792 6.09442 4.89499C5.98982 4.57158 5.88523 4.30524 5.86621 4.30524C5.8472 4.30524 5.46686 4.6667 5.01996 5.11377Z" fill="white"/>
    <path d="M21.2706 17.9743C20.8237 19.3726 20.1391 21.4843 19.7493 22.6638C19.3689 23.8433 18.6178 26.1548 18.0853 27.8004C17.5433 29.446 17.0869 30.8348 17.0584 30.8823C16.9728 31.0345 18.3896 30.8633 19.5306 30.5684C23.952 29.4555 27.7744 26.2594 29.6571 22.0931C30.0375 21.237 30.0565 21.1799 29.8948 21.0372C29.6666 20.8184 22.3736 15.5296 22.2215 15.4726C22.1359 15.4345 21.8507 16.1765 21.2706 17.9743Z" fill="white"/>
    <path d="M1.87346 21.9217C1.91149 22.0453 2.11117 22.4639 2.32036 22.8539C4.35517 26.6968 7.91134 29.5124 12.0475 30.5588C13.2456 30.8536 15.0237 31.0914 15.1378 30.9678C15.1758 30.9297 15.3945 30.34 15.6132 29.6551C16.1647 27.9334 18.1044 21.9788 18.152 21.8266C18.19 21.741 16.526 21.7124 10.0032 21.7124H1.81641L1.87346 21.9217Z" fill="white"/>
</svg>
