<svg id="Layer_1" enable-background="new 0 0 20 20" viewBox="0 0 20 20" xmlns="http://www.w3.org/2000/svg"><g><path fill="#fafafa" d="m17 0h-14c-1.7 0-3 1.3-3 3v10c0 1.7 1.3 3 3 3h3.9l-1.8 2.4c-.3.4-.2 1.1.2 1.4.5.3 1.1.2 1.4-.2l2.7-3.6h1.2l2.6 3.6c.3.4.9.5 1.4.2.4-.3.5-1 .2-1.4l-1.7-2.4h3.9c1.7 0 3-1.3 3-3v-10c0-1.7-1.3-3-3-3zm1 13c0 .6-.4 1-1 1h-14c-.6 0-1-.4-1-1v-10c0-.6.4-1 1-1h14c.6 0 1 .4 1 1z"/><path fill="#fafafa" d="m12.8 4.8-4.3 4.3-1.3-1.3c-.4-.4-1-.4-1.4 0s-.4 1 0 1.4l2 2c.4.4 1 .4 1.4 0l5-5c.4-.4.4-1 0-1.4s-1-.4-1.4 0z"/></g></svg>